<svg xmlns="http://www.w3.org/2000/svg" viewBox="-60 -60 1070 950" width="1070" height="950">
<defs>
  <filter id="contact" x="-5%" y="-5%" width="110%" height="110%"><feGaussianBlur stdDeviation="2.2"/></filter>
  <filter id="cast" x="-15%" y="-15%" width="130%" height="130%"><feGaussianBlur stdDeviation="9"/></filter>
</defs>
<path d="M431.0 403.2C429.5 404.2 427.6 404.2 426.0 403.2C424.4 402.2 422.6 398.3 421.5 397.0C420.3 395.7 419.7 395.4 419.0 395.2C418.3 395.0 418.3 394.9 417.0 395.8C415.7 396.6 413.2 399.4 411.0 400.2C408.8 401.0 405.5 400.5 404.0 400.5C402.5 400.5 403.0 400.7 402.0 400.2C401.0 399.7 399.2 397.8 398.0 397.6C396.8 397.4 395.8 399.0 395.0 399.2C394.2 399.4 393.8 399.6 393.0 399.0C392.2 398.4 390.8 396.3 390.0 395.5C389.2 394.8 388.8 394.6 388.0 394.6C387.2 394.6 386.3 395.3 385.0 395.5C383.7 395.6 382.0 395.8 380.0 395.5C378.0 395.1 375.2 393.9 373.0 393.5C370.8 393.2 368.2 393.4 367.0 393.2C365.8 392.9 366.1 392.5 365.8 392.0C365.6 391.5 365.4 390.7 365.6 390.0C365.8 389.3 365.9 388.5 367.0 387.8C368.1 387.0 370.3 385.9 372.0 385.5C373.7 385.2 375.0 385.7 377.0 385.5C379.0 385.2 382.3 384.6 384.0 384.2C385.7 383.8 386.1 383.7 387.0 383.2C387.9 382.7 388.8 381.5 389.1 381.0C389.5 380.5 389.4 380.5 389.1 380.0C388.8 379.5 388.2 378.7 387.3 378.0C386.4 377.3 385.7 377.5 383.7 376.0C381.7 374.5 377.4 370.6 375.3 369.0C373.2 367.4 371.9 367.1 371.0 366.5C370.1 365.8 370.0 365.7 369.8 365.0C369.6 364.3 369.6 362.7 369.8 362.0C370.0 361.3 370.3 361.1 371.0 360.8C371.7 360.6 372.3 360.1 374.0 360.6C375.7 361.0 379.2 363.0 381.0 363.5C382.8 364.0 383.7 363.4 385.0 363.5C386.3 363.7 387.7 364.5 389.0 364.5C390.3 364.5 391.7 363.7 393.0 363.5C394.3 363.4 395.7 363.3 397.0 363.5C398.3 363.8 399.5 365.7 401.0 365.1C402.5 364.5 404.5 360.9 405.7 360.0C407.0 359.1 407.5 359.7 408.3 360.0C409.1 360.3 409.9 361.1 410.5 362.0C411.1 362.9 411.0 364.0 412.0 365.3C413.0 366.6 415.4 368.9 416.2 370.0C417.1 371.1 417.0 371.0 417.2 372.0C417.5 373.0 417.1 374.7 417.8 376.0C418.5 377.3 420.6 379.1 421.5 380.0C422.4 380.9 422.6 380.9 423.0 381.1C423.4 381.3 423.3 381.4 424.0 381.1C424.7 380.8 426.2 379.4 427.0 379.2C427.8 378.9 428.5 379.5 429.0 379.8C429.5 380.1 429.9 380.0 430.2 381.0C430.5 382.0 430.3 384.7 430.8 386.0C431.3 387.3 432.5 387.8 433.2 389.0C434.0 390.2 434.8 392.0 435.2 393.0C435.6 394.0 435.5 394.3 435.5 395.0C435.5 395.7 435.9 395.6 435.2 397.0C434.4 398.4 432.5 402.2 431.0 403.2Z M356.0 823.2C352.9 824.0 349.3 823.6 347.0 823.5C344.7 823.3 343.7 823.2 342.0 822.5C340.3 821.7 338.7 819.3 337.0 819.2C335.3 819.0 334.5 821.2 332.0 821.4C329.5 821.7 324.2 820.9 322.0 820.5C319.8 820.0 320.3 819.1 319.0 818.8C317.7 818.5 315.2 818.7 314.0 818.4C312.8 818.2 312.8 818.3 312.0 817.5C311.2 816.6 310.3 814.9 309.0 813.5C307.7 812.1 305.0 810.9 304.0 809.3C303.0 807.7 303.5 805.2 303.2 804.0C302.9 802.8 302.7 802.7 302.2 802.0C301.8 801.3 301.2 800.7 300.3 800.0C299.5 799.3 297.7 798.8 297.0 798.0C296.3 797.2 296.6 795.8 296.2 795.0C295.8 794.2 295.2 793.6 294.5 793.0C293.8 792.4 293.6 791.9 292.0 791.6C290.4 791.2 286.7 791.6 285.0 791.2C283.3 790.8 283.0 790.0 282.0 789.2C281.0 788.4 280.0 787.6 279.0 786.3C278.0 785.1 277.2 782.8 276.0 781.5C274.8 780.3 272.8 779.9 271.7 779.0C270.6 778.1 270.4 777.0 269.5 776.0C268.5 775.0 267.0 774.9 266.0 773.3C265.0 771.6 265.4 769.4 263.2 766.0C261.0 762.6 254.5 756.2 252.8 753.0C251.1 749.8 254.0 748.8 253.2 747.0C252.4 745.2 248.9 743.7 247.8 742.0C246.7 740.3 246.6 739.3 246.5 737.0C246.4 734.7 247.5 730.3 247.5 728.0C247.4 725.7 246.8 724.1 246.2 723.0C245.6 721.9 245.2 721.3 244.0 721.2C242.8 721.1 240.8 722.4 239.0 722.5C237.2 722.6 234.7 721.5 233.0 721.5C231.3 721.6 230.8 723.1 229.0 722.9C227.2 722.6 224.8 720.1 222.0 720.1C219.2 720.1 214.2 722.1 212.0 722.8C209.8 723.4 210.7 724.4 209.0 724.2C207.3 724.0 205.0 721.8 202.0 721.5C199.0 721.3 193.8 722.7 191.0 722.5C188.2 722.2 187.3 721.6 185.0 720.2C182.7 718.8 179.1 715.2 177.3 714.0C175.5 712.8 174.7 713.0 174.0 712.8C173.3 712.7 173.7 712.5 173.0 712.9C172.3 713.3 171.2 714.6 170.0 715.2C168.8 715.8 168.3 716.2 166.0 716.5C163.7 716.7 158.5 716.6 156.0 716.5C153.5 716.3 152.5 715.4 151.0 715.5C149.5 715.7 148.2 716.9 147.0 717.2C145.8 717.5 145.3 718.2 144.0 717.4C142.7 716.7 140.5 713.7 139.0 712.8C137.5 711.9 136.8 713.2 135.0 712.2C133.2 711.2 130.5 708.1 128.0 706.8C125.5 705.4 121.9 705.2 120.0 704.2C118.1 703.3 117.3 701.7 116.3 701.0C115.3 700.3 114.7 700.0 114.0 699.8C113.3 699.5 112.8 699.4 112.0 699.6C111.2 699.7 110.8 700.3 109.0 700.5C107.2 700.6 103.0 700.9 101.0 700.4C99.0 700.0 98.5 698.5 97.0 697.8C95.5 697.1 93.5 696.7 92.0 696.5C90.5 696.3 89.5 696.2 88.0 696.5C86.5 696.9 85.8 698.0 83.0 698.5C80.2 698.9 73.5 699.5 71.0 699.5C68.5 699.4 69.0 699.1 68.0 698.2C67.0 697.4 66.0 695.4 65.0 694.5C64.0 693.6 63.7 693.2 62.0 692.8C60.3 692.4 56.7 692.7 55.0 692.2C53.3 691.7 53.5 690.3 52.0 689.8C50.5 689.3 48.7 690.1 46.0 689.2C43.3 688.4 39.2 685.3 36.0 684.8C32.8 684.3 30.5 686.8 27.0 686.2C23.5 685.6 17.5 682.4 15.0 681.2C12.5 680.0 12.8 679.9 11.9 679.0C11.1 678.1 10.3 677.0 9.8 676.0C9.2 675.0 8.6 674.3 8.6 673.0C8.6 671.7 9.2 669.5 9.8 668.0C10.4 666.5 11.6 665.2 12.2 664.0C12.8 662.8 13.1 661.8 13.2 661.0C13.4 660.2 14.1 660.1 13.2 659.0C12.3 657.9 9.3 656.0 8.0 654.3C6.7 652.7 6.0 650.1 5.6 649.0C5.3 647.9 5.3 648.5 6.1 648.0C6.8 647.5 9.2 646.8 10.3 646.0C11.5 645.2 12.8 644.5 13.2 643.0C13.6 641.5 12.3 639.3 12.8 637.0C13.3 634.7 15.6 630.8 16.2 629.0C16.9 627.2 16.2 627.3 16.8 626.0C17.4 624.7 18.8 622.5 19.8 621.0C20.7 619.5 21.6 618.0 22.7 617.0C23.8 616.0 25.3 615.8 26.3 615.0C27.4 614.2 28.4 613.3 29.0 612.3C29.6 611.3 28.8 610.9 29.8 609.0C30.8 607.1 34.1 603.2 35.2 601.0C36.4 598.8 35.6 598.2 36.8 596.0C38.0 593.8 41.0 589.8 42.5 588.0C44.1 586.2 41.9 589.2 46.0 585.5C50.1 581.7 62.3 569.6 67.0 565.5C71.7 561.4 71.8 562.8 74.3 561.0C76.8 559.2 80.0 556.1 82.0 554.8C84.0 553.4 84.1 554.7 86.3 553.0C88.5 551.3 93.2 546.3 95.0 544.8C96.8 543.3 95.2 545.4 97.0 544.2C98.8 543.0 103.7 538.8 106.0 537.8C108.3 536.8 109.8 538.3 111.0 538.2C112.2 538.1 111.0 538.6 113.0 537.2C115.0 535.8 120.5 531.3 123.0 529.8C125.5 528.4 126.2 528.8 128.0 528.5C129.8 528.3 132.2 529.0 134.0 528.2C135.8 527.4 137.7 524.6 139.0 523.8C140.3 523.0 139.2 524.6 142.0 523.2C144.8 521.9 152.8 517.1 156.0 515.8C159.2 514.5 159.3 515.4 161.0 515.5C162.7 515.6 164.3 516.5 166.0 516.2C167.7 515.9 169.7 514.3 171.0 513.8C172.3 513.3 173.2 513.5 174.0 513.2C174.8 512.9 174.8 512.1 176.0 511.8C177.2 511.5 179.2 511.9 181.0 511.2C182.8 510.6 185.0 508.6 187.0 507.8C189.0 506.9 191.5 506.7 193.0 506.2C194.5 505.7 194.7 505.1 196.0 504.8C197.3 504.4 199.3 504.7 201.0 504.2C202.7 503.7 204.5 502.3 206.0 501.8C207.5 501.3 207.8 502.2 210.0 501.2C212.2 500.2 216.5 496.6 219.0 495.8C221.5 495.0 223.2 496.9 225.0 496.4C226.8 496.0 228.7 493.5 230.0 492.8C231.3 492.2 232.0 492.5 233.0 492.5C234.0 492.6 234.5 493.6 236.0 493.1C237.5 492.7 240.5 490.4 242.0 489.8C243.5 489.1 243.8 489.9 245.0 489.2C246.2 488.5 247.5 486.5 249.0 485.8C250.5 485.1 252.4 485.8 254.0 485.2C255.6 484.6 256.7 482.9 258.5 482.0C260.4 481.1 263.1 480.2 265.0 479.8C266.9 479.4 268.5 479.5 270.0 479.5C271.5 479.6 272.7 480.6 274.0 480.2C275.3 479.7 276.8 477.5 278.0 476.8C279.2 476.1 280.3 476.0 281.0 475.8C281.7 475.7 281.3 475.5 282.0 475.9C282.7 476.3 284.3 477.7 285.0 478.1C285.7 478.5 285.1 479.0 286.0 478.1C286.9 477.3 289.5 474.1 290.7 473.0C291.9 471.9 291.3 472.1 293.0 471.8C294.7 471.5 299.0 471.5 301.0 471.2C303.0 471.0 303.3 471.0 305.0 470.2C306.7 469.5 309.2 467.5 311.0 466.8C312.8 466.1 314.5 466.1 316.0 466.1C317.5 466.2 319.0 466.4 319.9 467.0C320.9 467.6 320.7 469.0 321.5 470.0C322.4 471.0 324.0 472.6 325.0 472.8C326.0 472.9 326.5 472.1 327.5 471.0C328.4 469.9 329.1 467.7 330.7 466.0C332.3 464.3 335.3 461.8 337.0 460.8C338.7 459.8 339.7 460.7 341.0 460.2C342.3 459.7 343.0 458.4 345.0 457.8C347.0 457.1 350.3 457.1 353.0 456.2C355.7 455.4 358.8 453.4 361.0 452.8C363.2 452.1 363.8 452.7 366.0 452.2C368.2 451.7 371.5 450.1 374.0 449.8C376.5 449.5 378.2 450.7 381.0 450.5C383.8 450.2 388.0 448.6 391.0 448.5C394.0 448.4 396.8 449.3 399.0 449.8C401.2 450.3 401.5 451.2 404.0 451.5C406.5 451.7 411.8 451.3 414.0 451.5C416.2 451.8 416.0 452.2 417.0 452.8C418.0 453.4 419.2 454.8 420.0 455.2C420.8 455.6 421.1 455.9 422.0 455.2C422.9 454.5 424.4 452.2 425.7 451.0C426.9 449.8 428.4 449.2 429.5 448.0C430.5 446.8 430.3 445.3 432.0 443.5C433.7 441.7 437.4 439.3 439.5 437.0C441.6 434.7 442.4 432.1 444.5 430.0C446.6 427.9 450.6 425.6 452.0 424.5C453.4 423.3 453.0 423.6 453.1 423.0C453.2 422.4 453.2 422.0 452.5 421.0C451.7 420.0 449.6 418.3 448.5 417.0C447.5 415.7 447.0 414.1 446.2 413.0C445.5 411.9 444.5 411.1 444.0 410.5C443.5 410.0 443.8 410.0 443.0 409.8C442.2 409.6 440.0 409.5 439.0 409.2C438.0 408.9 437.4 408.4 437.1 408.0C436.7 407.6 436.8 407.4 436.9 407.0C437.1 406.6 437.2 406.0 438.0 405.8C438.8 405.7 440.8 406.5 442.0 406.1C443.2 405.8 443.8 404.4 445.0 403.8C446.2 403.3 447.5 402.6 449.0 402.8C450.5 403.1 452.7 404.7 454.0 405.2C455.3 405.7 455.7 405.0 457.0 405.8C458.3 406.6 460.5 409.1 461.7 410.0C462.8 410.9 462.1 410.4 464.0 411.2C465.9 412.1 471.0 414.5 473.0 415.2C475.0 416.0 475.0 415.4 476.0 415.8C477.0 416.1 478.2 417.0 479.0 417.2C479.8 417.5 479.7 417.8 481.0 417.2C482.3 416.6 485.3 414.6 487.0 413.7C488.7 412.9 490.3 412.6 491.3 412.0C492.3 411.4 492.5 411.0 493.0 410.3C493.5 409.6 493.0 408.8 494.0 408.0C495.0 407.2 498.0 406.1 499.0 405.4C500.0 404.8 499.8 404.6 499.8 404.0C499.8 403.4 499.0 402.5 498.9 402.0C498.8 401.5 497.2 402.1 499.2 401.0C501.2 399.9 508.4 396.8 511.0 395.2C513.6 393.7 513.3 392.9 515.0 391.8C516.7 390.6 519.0 390.5 521.0 388.5C523.0 386.5 525.3 381.6 527.0 379.7C528.7 377.7 530.0 377.3 531.0 376.8C532.0 376.4 532.3 376.5 532.9 377.0C533.5 377.5 534.1 379.4 534.6 380.0C535.1 380.6 535.2 381.1 536.0 380.8C536.8 380.4 538.1 379.5 539.5 378.0C540.8 376.5 542.7 372.9 544.0 371.5C545.3 370.2 545.7 369.9 547.0 369.8C548.3 369.8 550.0 371.7 552.0 371.4C554.0 371.1 557.5 368.4 559.0 367.8C560.5 367.2 560.0 367.1 561.0 367.6C562.0 368.0 564.0 369.9 565.0 370.4C566.0 370.9 566.2 370.9 567.0 370.7C567.8 370.5 569.0 369.9 570.0 369.2C571.0 368.6 571.7 367.5 573.0 366.8C574.3 366.1 575.5 366.4 578.0 365.2C580.5 364.0 586.0 360.3 588.0 359.6C590.0 358.9 589.6 360.4 590.0 360.8C590.4 361.2 590.5 361.3 590.1 362.0C589.8 362.7 590.0 363.5 588.0 365.3C586.0 367.1 580.8 371.3 578.3 373.0C575.8 374.7 574.2 374.7 573.0 375.5C571.8 376.4 571.2 377.1 570.9 378.0C570.5 378.9 571.8 379.9 571.0 381.2C570.2 382.5 567.4 383.9 566.0 385.7C564.6 387.5 563.3 390.7 562.5 392.0C561.6 393.3 561.7 392.9 561.0 393.2C560.3 393.5 558.9 393.3 558.0 393.8C557.1 394.3 556.1 395.0 555.6 396.0C555.1 397.0 554.5 398.8 554.9 400.0C555.2 401.2 556.7 402.3 557.7 403.0C558.7 403.7 560.2 403.7 560.7 404.0C561.2 404.3 561.0 404.7 560.8 405.0C560.6 405.3 560.4 405.7 559.4 406.0C558.5 406.3 556.1 406.4 555.0 406.8C553.9 407.2 553.7 407.9 553.0 408.2C552.3 408.5 552.3 408.8 551.0 408.5C549.7 408.2 547.5 406.7 545.0 406.5C542.5 406.4 538.7 407.6 536.0 407.5C533.3 407.3 531.2 405.9 529.0 405.5C526.8 405.2 524.7 404.7 523.0 405.2C521.3 405.6 520.2 407.9 519.0 408.4C517.8 409.0 517.2 408.7 516.0 408.5C514.8 408.2 513.5 406.7 512.0 406.9C510.5 407.0 508.2 408.8 507.0 409.2C505.8 409.6 505.7 409.4 505.0 409.2C504.3 409.0 503.7 408.1 503.0 408.2C502.3 408.3 501.6 408.4 501.0 409.7C500.4 411.0 499.5 413.6 499.5 416.0C499.5 418.4 498.7 420.5 500.8 424.0C502.9 427.5 510.0 434.2 512.2 437.0C514.5 439.8 513.5 438.5 514.2 441.0C515.0 443.5 516.0 449.8 516.8 452.0C517.6 454.2 518.3 453.9 519.0 454.5C519.7 455.0 520.3 455.3 521.0 455.4C521.7 455.6 521.7 455.9 523.0 455.2C524.3 454.5 527.8 452.3 529.0 451.5C530.2 450.6 529.9 450.7 530.2 450.0C530.5 449.3 530.7 447.7 531.0 447.2C531.3 446.7 531.2 446.6 532.0 446.9C532.8 447.3 534.8 448.8 536.0 449.2C537.2 449.6 537.3 450.1 539.0 449.4C540.7 448.8 543.8 446.1 546.0 445.5C548.2 445.0 550.5 446.3 552.0 446.2C553.5 446.0 554.0 445.0 555.0 444.8C556.0 444.5 556.0 444.0 558.0 444.5C560.0 445.1 564.8 447.5 567.0 448.2C569.2 449.0 569.9 449.2 571.0 449.2C572.1 449.1 572.3 448.7 573.3 448.0C574.3 447.3 576.1 445.4 577.0 444.8C577.9 444.2 578.2 444.4 579.0 444.6C579.8 444.7 580.8 445.0 582.0 445.8C583.2 446.5 584.7 448.5 586.0 449.2C587.3 449.9 588.8 449.1 590.0 449.8C591.2 450.5 592.2 452.7 593.0 453.5C593.8 454.3 593.0 455.1 595.0 454.8C597.0 454.5 602.8 451.9 605.0 451.6C607.2 451.3 607.2 452.0 608.3 453.0C609.5 454.0 610.4 456.1 612.0 457.5C613.6 458.8 616.3 460.4 618.0 461.2C619.7 462.0 620.7 462.2 622.0 462.2C623.3 462.1 625.0 461.0 626.0 460.8C627.0 460.6 627.3 460.4 628.0 460.8C628.7 461.2 629.5 461.9 630.2 463.0C630.9 464.1 631.4 466.3 632.0 467.3C632.6 468.4 633.3 468.9 634.0 469.1C634.7 469.3 634.9 469.5 636.0 468.5C637.1 467.4 639.4 464.0 640.7 463.0C642.0 462.0 642.0 461.9 644.0 462.6C646.0 463.2 650.8 466.6 653.0 467.1C655.2 467.7 656.0 466.0 657.0 465.8C658.0 465.6 657.8 465.2 659.0 465.8C660.2 466.4 661.7 468.0 664.0 469.2C666.3 470.5 671.0 472.8 673.0 473.4C675.0 474.1 674.8 473.5 676.0 473.2C677.2 472.9 678.7 471.8 680.0 471.5C681.3 471.3 683.0 471.4 684.0 471.6C685.0 471.7 685.0 471.6 686.0 472.5C687.0 473.5 688.5 476.2 690.0 477.2C691.5 478.3 693.3 478.1 695.0 478.8C696.7 479.6 698.7 480.8 700.0 481.8C701.3 482.7 701.3 483.9 703.0 484.4C704.7 484.9 708.6 484.6 710.0 484.8C711.4 485.1 710.9 485.4 711.2 486.0C711.5 486.6 711.5 487.6 712.0 488.3C712.5 489.0 713.3 489.9 714.0 490.1C714.7 490.3 715.2 490.2 716.0 489.5C716.8 488.7 717.8 486.5 719.0 485.8C720.2 485.2 721.8 485.4 723.0 485.5C724.2 485.7 725.0 486.4 726.0 486.4C727.0 486.5 727.8 485.9 729.0 486.1C730.2 486.4 731.7 486.7 733.3 488.0C735.0 489.3 737.1 493.5 739.0 494.1C740.9 494.8 743.7 492.2 745.0 491.8C746.3 491.4 746.3 491.6 747.0 491.8C747.7 492.0 748.6 492.3 749.3 493.0C750.1 493.7 750.9 495.4 751.6 496.0C752.2 496.6 752.1 496.9 753.0 496.8C753.9 496.8 756.0 495.8 757.0 495.5C758.0 495.3 757.7 495.0 759.0 495.6C760.3 496.1 763.3 497.7 765.0 498.8C766.7 499.9 767.3 501.7 769.0 502.2C770.7 502.7 771.2 500.5 775.0 501.8C778.8 503.0 788.3 507.9 792.0 509.8C795.7 511.7 795.5 512.6 797.0 513.2C798.5 513.9 797.3 512.1 801.0 513.8C804.7 515.4 815.3 521.5 819.0 523.2C822.7 524.9 821.0 522.9 823.0 523.8C825.0 524.6 828.7 527.2 831.0 528.2C833.3 529.2 835.2 528.9 837.0 529.8C838.8 530.6 840.2 532.4 842.0 533.2C843.8 534.0 845.5 533.6 848.0 534.8C850.5 536.0 854.8 539.0 857.0 540.2C859.2 541.4 859.3 540.3 861.3 542.0C863.3 543.7 866.7 548.4 869.0 550.5C871.3 552.6 873.2 553.1 875.0 554.5C876.8 555.9 877.5 557.4 879.7 559.0C881.8 560.6 885.8 562.2 888.0 563.9C890.2 565.7 891.7 568.2 893.0 569.5C894.3 570.7 892.9 568.8 896.0 571.5C899.1 574.3 908.6 583.1 911.5 586.0C914.4 588.9 912.3 587.6 913.5 589.0C914.8 590.4 917.3 592.2 919.0 594.7C920.7 597.2 922.2 601.6 923.8 604.0C925.3 606.4 927.4 607.6 928.5 609.0C929.5 610.4 929.2 611.1 930.0 612.3C930.8 613.5 932.0 613.9 933.2 616.0C934.4 618.1 936.4 622.8 937.2 625.0C938.1 627.2 938.3 627.7 938.4 629.0C938.5 630.3 937.5 631.5 937.8 633.0C938.1 634.5 939.7 636.5 940.2 638.0C940.8 639.5 941.7 640.8 941.1 642.0C940.5 643.2 937.6 644.2 936.7 645.0C935.7 645.8 935.0 646.1 935.2 647.0C935.4 647.9 936.7 649.5 938.0 650.5C939.3 651.5 942.2 652.2 943.0 653.0C943.8 653.8 943.4 654.3 943.0 655.0C942.6 655.7 941.1 656.3 940.5 657.0C940.0 657.7 939.4 658.0 939.9 659.0C940.3 660.0 942.6 662.0 943.2 663.0C943.8 664.0 944.1 663.0 943.4 665.0C942.8 667.0 940.6 672.8 939.2 675.0C937.8 677.2 936.9 677.4 935.0 678.2C933.1 678.9 932.5 679.2 928.0 679.5C923.5 679.7 913.0 678.9 908.0 679.8C903.0 680.7 900.3 683.4 898.0 684.8C895.7 686.2 895.3 687.5 894.0 688.2C892.7 688.9 891.7 688.1 890.0 688.8C888.3 689.4 885.8 691.4 884.0 692.2C882.2 693.0 881.0 693.2 879.0 693.5C877.0 693.7 874.2 693.2 872.0 693.5C869.8 693.9 867.8 695.1 866.0 695.5C864.2 695.8 862.8 695.8 861.0 695.5C859.2 695.1 856.7 693.9 855.0 693.5C853.3 693.2 852.2 693.4 851.0 693.5C849.8 693.7 848.7 694.3 848.0 694.4C847.3 694.5 847.5 694.6 846.7 694.0C845.9 693.4 844.5 691.2 843.0 690.8C841.5 690.4 839.5 691.5 838.0 691.4C836.5 691.4 835.2 690.4 834.0 690.6C832.8 690.7 832.5 691.0 831.0 692.5C829.5 694.0 826.8 697.8 825.0 699.5C823.2 701.1 821.8 701.4 820.0 702.2C818.2 703.1 816.3 704.0 814.0 704.5C811.7 704.9 808.0 704.2 806.0 704.8C804.0 705.4 803.2 707.5 802.0 708.2C800.8 708.9 800.7 708.1 799.0 708.8C797.3 709.5 793.8 711.8 792.0 712.5C790.2 713.1 789.0 712.6 788.0 712.5C787.0 712.3 787.2 711.8 786.0 711.8C784.8 711.8 782.5 712.5 781.0 712.5C779.5 712.4 778.8 710.9 777.0 711.8C775.2 712.7 772.1 716.7 770.3 718.0C768.5 719.3 767.4 719.2 766.0 719.5C764.6 719.7 763.2 719.7 762.0 719.5C760.8 719.2 760.5 719.3 759.0 718.2C757.5 717.1 754.8 713.5 753.0 712.9C751.2 712.2 749.3 714.3 748.0 714.4C746.7 714.5 746.0 713.6 745.0 713.5C744.0 713.4 742.9 713.4 742.0 713.8C741.1 714.2 740.3 715.0 739.8 716.0C739.3 717.0 739.7 719.1 739.2 720.0C738.7 720.9 737.7 721.2 737.0 721.4C736.3 721.6 736.0 721.8 735.0 721.2C734.0 720.5 732.0 718.3 731.0 717.5C730.0 716.8 731.2 716.7 729.0 716.6C726.8 716.4 720.5 716.6 718.0 716.5C715.5 716.3 715.2 715.6 714.0 715.5C712.8 715.4 711.9 715.4 711.0 715.8C710.1 716.2 709.1 717.3 708.5 718.0C708.0 718.7 707.1 718.8 707.9 720.0C708.7 721.2 712.3 723.5 713.2 725.0C714.1 726.5 713.5 728.1 713.2 729.0C712.8 729.9 712.0 730.6 711.0 730.4C710.0 730.2 707.8 728.3 707.0 727.9C706.2 727.5 706.6 727.4 706.0 727.9C705.4 728.4 703.5 730.1 703.2 731.0C702.8 731.9 703.4 732.5 704.0 733.3C704.6 734.2 706.4 735.2 707.1 736.0C707.8 736.8 707.7 736.5 708.2 738.0C708.8 739.5 710.1 743.3 710.5 745.0C710.8 746.7 710.4 747.0 710.2 748.0C710.0 749.0 709.6 750.3 709.2 751.0C708.8 751.7 708.5 752.0 708.0 752.5C707.5 753.0 707.3 753.4 706.0 754.2C704.7 755.1 701.4 756.4 700.0 757.5C698.6 758.7 698.3 759.9 697.7 761.0C697.2 762.1 696.8 762.5 696.5 764.0C696.3 765.5 696.6 768.5 696.5 770.0C696.3 771.5 695.6 771.5 695.5 773.0C695.5 774.5 696.4 777.5 696.2 779.0C696.0 780.5 695.0 781.3 694.3 782.0C693.5 782.7 692.4 782.5 691.7 783.0C691.0 783.5 690.2 783.8 689.8 785.0C689.4 786.2 689.9 788.9 689.4 790.0C688.9 791.1 688.6 791.2 687.0 791.5C685.4 791.7 681.8 791.2 680.0 791.6C678.2 791.9 677.5 793.6 676.0 793.4C674.5 793.2 672.3 791.0 671.0 790.6C669.7 790.1 669.2 790.3 668.0 790.5C666.8 790.8 665.2 792.3 664.0 792.1C662.8 792.0 662.0 790.2 661.0 789.8C660.0 789.3 658.8 789.2 658.0 789.3C657.2 789.5 656.7 789.9 656.0 790.5C655.3 791.1 655.0 792.3 654.0 793.0C653.0 793.7 651.0 794.1 650.0 794.8C649.0 795.4 648.4 796.3 648.0 796.8C647.6 797.3 647.6 797.1 647.8 798.0C648.1 798.9 649.7 800.5 649.4 802.0C649.1 803.5 648.4 806.3 646.0 807.2C643.6 808.1 637.7 807.2 635.0 807.5C632.3 807.9 632.0 809.2 630.0 809.5C628.0 809.7 624.5 808.6 623.0 808.8C621.5 809.0 621.6 809.8 621.0 810.7C620.4 811.6 620.8 812.7 619.3 814.0C617.8 815.3 615.1 817.5 612.0 818.2C608.9 819.0 603.8 818.6 601.0 818.5C598.2 818.3 597.2 818.3 595.0 817.2C592.8 816.1 589.8 812.9 588.0 811.8C586.2 810.7 585.5 810.8 584.0 810.5C582.5 810.3 580.7 811.0 579.0 810.2C577.3 809.4 575.7 806.8 574.0 805.8C572.3 804.8 570.8 805.0 569.0 804.2C567.2 803.4 564.8 801.4 563.0 800.8C561.2 800.2 559.5 800.4 558.0 800.5C556.5 800.7 555.2 801.5 554.0 801.4C552.8 801.4 552.2 800.9 551.0 800.2C549.8 799.6 548.7 797.7 547.0 797.6C545.3 797.4 543.0 799.3 541.0 799.4C539.0 799.6 537.7 799.3 535.0 798.2C532.3 797.1 527.2 793.8 525.0 792.8C522.8 791.8 523.7 793.1 522.0 792.2C520.3 791.3 517.3 789.8 515.0 787.5C512.7 785.1 510.1 780.1 508.5 778.0C506.8 775.9 507.5 777.8 504.9 775.0C502.4 772.2 495.3 764.3 493.0 761.3C490.7 758.3 492.3 758.7 491.2 757.0C490.1 755.3 488.8 753.6 486.5 751.0C484.1 748.4 478.9 743.2 477.0 741.5C475.1 739.8 476.2 740.4 475.0 740.9C473.8 741.3 471.3 743.6 470.0 744.2C468.7 744.9 467.9 744.3 467.0 744.8C466.1 745.3 465.1 746.3 464.9 747.0C464.6 747.7 465.0 748.3 465.5 749.0C466.1 749.7 467.7 750.3 468.3 751.0C469.0 751.7 469.6 751.2 469.4 753.0C469.3 754.8 467.9 759.7 467.5 762.0C467.2 764.3 467.9 765.3 467.5 767.0C467.0 768.7 466.4 770.5 465.0 772.3C463.6 774.2 461.2 776.7 459.0 778.2C456.8 779.8 454.0 780.6 452.0 781.8C450.0 782.9 450.0 784.4 447.0 785.2C444.0 786.0 437.0 785.6 434.0 786.8C431.0 788.1 431.2 791.0 429.0 792.7C426.8 794.4 423.3 796.1 421.0 797.2C418.7 798.4 417.2 798.6 415.0 799.8C412.8 800.9 409.8 803.4 408.0 804.2C406.2 805.0 405.2 804.3 404.0 804.8C402.8 805.3 402.2 806.5 401.0 807.2C399.8 807.9 398.4 808.0 396.7 809.0C395.0 810.0 392.3 812.5 391.0 813.2C389.7 813.9 390.0 813.6 389.0 813.2C388.0 812.7 386.7 810.8 385.0 810.6C383.3 810.3 380.5 811.6 379.0 811.4C377.5 811.3 377.0 810.1 376.0 809.8C375.0 809.5 374.2 809.2 373.0 809.8C371.8 810.3 369.8 811.5 368.5 813.0C367.2 814.5 367.4 817.3 365.3 819.0C363.2 820.7 359.1 822.5 356.0 823.2Z" transform="translate(476 135) scale(1.045) translate(-476 -135)" fill="#2a0008" fill-opacity="0.55" filter="url(#cast)"/>
<path d="M431.0 403.2C429.5 404.2 427.6 404.2 426.0 403.2C424.4 402.2 422.6 398.3 421.5 397.0C420.3 395.7 419.7 395.4 419.0 395.2C418.3 395.0 418.3 394.9 417.0 395.8C415.7 396.6 413.2 399.4 411.0 400.2C408.8 401.0 405.5 400.5 404.0 400.5C402.5 400.5 403.0 400.7 402.0 400.2C401.0 399.7 399.2 397.8 398.0 397.6C396.8 397.4 395.8 399.0 395.0 399.2C394.2 399.4 393.8 399.6 393.0 399.0C392.2 398.4 390.8 396.3 390.0 395.5C389.2 394.8 388.8 394.6 388.0 394.6C387.2 394.6 386.3 395.3 385.0 395.5C383.7 395.6 382.0 395.8 380.0 395.5C378.0 395.1 375.2 393.9 373.0 393.5C370.8 393.2 368.2 393.4 367.0 393.2C365.8 392.9 366.1 392.5 365.8 392.0C365.6 391.5 365.4 390.7 365.6 390.0C365.8 389.3 365.9 388.5 367.0 387.8C368.1 387.0 370.3 385.9 372.0 385.5C373.7 385.2 375.0 385.7 377.0 385.5C379.0 385.2 382.3 384.6 384.0 384.2C385.7 383.8 386.1 383.7 387.0 383.2C387.9 382.7 388.8 381.5 389.1 381.0C389.5 380.5 389.4 380.5 389.1 380.0C388.8 379.5 388.2 378.7 387.3 378.0C386.4 377.3 385.7 377.5 383.7 376.0C381.7 374.5 377.4 370.6 375.3 369.0C373.2 367.4 371.9 367.1 371.0 366.5C370.1 365.8 370.0 365.7 369.8 365.0C369.6 364.3 369.6 362.7 369.8 362.0C370.0 361.3 370.3 361.1 371.0 360.8C371.7 360.6 372.3 360.1 374.0 360.6C375.7 361.0 379.2 363.0 381.0 363.5C382.8 364.0 383.7 363.4 385.0 363.5C386.3 363.7 387.7 364.5 389.0 364.5C390.3 364.5 391.7 363.7 393.0 363.5C394.3 363.4 395.7 363.3 397.0 363.5C398.3 363.8 399.5 365.7 401.0 365.1C402.5 364.5 404.5 360.9 405.7 360.0C407.0 359.1 407.5 359.7 408.3 360.0C409.1 360.3 409.9 361.1 410.5 362.0C411.1 362.9 411.0 364.0 412.0 365.3C413.0 366.6 415.4 368.9 416.2 370.0C417.1 371.1 417.0 371.0 417.2 372.0C417.5 373.0 417.1 374.7 417.8 376.0C418.5 377.3 420.6 379.1 421.5 380.0C422.4 380.9 422.6 380.9 423.0 381.1C423.4 381.3 423.3 381.4 424.0 381.1C424.7 380.8 426.2 379.4 427.0 379.2C427.8 378.9 428.5 379.5 429.0 379.8C429.5 380.1 429.9 380.0 430.2 381.0C430.5 382.0 430.3 384.7 430.8 386.0C431.3 387.3 432.5 387.8 433.2 389.0C434.0 390.2 434.8 392.0 435.2 393.0C435.6 394.0 435.5 394.3 435.5 395.0C435.5 395.7 435.9 395.6 435.2 397.0C434.4 398.4 432.5 402.2 431.0 403.2Z M356.0 823.2C352.9 824.0 349.3 823.6 347.0 823.5C344.7 823.3 343.7 823.2 342.0 822.5C340.3 821.7 338.7 819.3 337.0 819.2C335.3 819.0 334.5 821.2 332.0 821.4C329.5 821.7 324.2 820.9 322.0 820.5C319.8 820.0 320.3 819.1 319.0 818.8C317.7 818.5 315.2 818.7 314.0 818.4C312.8 818.2 312.8 818.3 312.0 817.5C311.2 816.6 310.3 814.9 309.0 813.5C307.7 812.1 305.0 810.9 304.0 809.3C303.0 807.7 303.5 805.2 303.2 804.0C302.9 802.8 302.7 802.7 302.2 802.0C301.8 801.3 301.2 800.7 300.3 800.0C299.5 799.3 297.7 798.8 297.0 798.0C296.3 797.2 296.6 795.8 296.2 795.0C295.8 794.2 295.2 793.6 294.5 793.0C293.8 792.4 293.6 791.9 292.0 791.6C290.4 791.2 286.7 791.6 285.0 791.2C283.3 790.8 283.0 790.0 282.0 789.2C281.0 788.4 280.0 787.6 279.0 786.3C278.0 785.1 277.2 782.8 276.0 781.5C274.8 780.3 272.8 779.9 271.7 779.0C270.6 778.1 270.4 777.0 269.5 776.0C268.5 775.0 267.0 774.9 266.0 773.3C265.0 771.6 265.4 769.4 263.2 766.0C261.0 762.6 254.5 756.2 252.8 753.0C251.1 749.8 254.0 748.8 253.2 747.0C252.4 745.2 248.9 743.7 247.8 742.0C246.7 740.3 246.6 739.3 246.5 737.0C246.4 734.7 247.5 730.3 247.5 728.0C247.4 725.7 246.8 724.1 246.2 723.0C245.6 721.9 245.2 721.3 244.0 721.2C242.8 721.1 240.8 722.4 239.0 722.5C237.2 722.6 234.7 721.5 233.0 721.5C231.3 721.6 230.8 723.1 229.0 722.9C227.2 722.6 224.8 720.1 222.0 720.1C219.2 720.1 214.2 722.1 212.0 722.8C209.8 723.4 210.7 724.4 209.0 724.2C207.3 724.0 205.0 721.8 202.0 721.5C199.0 721.3 193.8 722.7 191.0 722.5C188.2 722.2 187.3 721.6 185.0 720.2C182.7 718.8 179.1 715.2 177.3 714.0C175.5 712.8 174.7 713.0 174.0 712.8C173.3 712.7 173.7 712.5 173.0 712.9C172.3 713.3 171.2 714.6 170.0 715.2C168.8 715.8 168.3 716.2 166.0 716.5C163.7 716.7 158.5 716.6 156.0 716.5C153.5 716.3 152.5 715.4 151.0 715.5C149.5 715.7 148.2 716.9 147.0 717.2C145.8 717.5 145.3 718.2 144.0 717.4C142.7 716.7 140.5 713.7 139.0 712.8C137.5 711.9 136.8 713.2 135.0 712.2C133.2 711.2 130.5 708.1 128.0 706.8C125.5 705.4 121.9 705.2 120.0 704.2C118.1 703.3 117.3 701.7 116.3 701.0C115.3 700.3 114.7 700.0 114.0 699.8C113.3 699.5 112.8 699.4 112.0 699.6C111.2 699.7 110.8 700.3 109.0 700.5C107.2 700.6 103.0 700.9 101.0 700.4C99.0 700.0 98.5 698.5 97.0 697.8C95.5 697.1 93.5 696.7 92.0 696.5C90.5 696.3 89.5 696.2 88.0 696.5C86.5 696.9 85.8 698.0 83.0 698.5C80.2 698.9 73.5 699.5 71.0 699.5C68.5 699.4 69.0 699.1 68.0 698.2C67.0 697.4 66.0 695.4 65.0 694.5C64.0 693.6 63.7 693.2 62.0 692.8C60.3 692.4 56.7 692.7 55.0 692.2C53.3 691.7 53.5 690.3 52.0 689.8C50.5 689.3 48.7 690.1 46.0 689.2C43.3 688.4 39.2 685.3 36.0 684.8C32.8 684.3 30.5 686.8 27.0 686.2C23.5 685.6 17.5 682.4 15.0 681.2C12.5 680.0 12.8 679.9 11.9 679.0C11.1 678.1 10.3 677.0 9.8 676.0C9.2 675.0 8.6 674.3 8.6 673.0C8.6 671.7 9.2 669.5 9.8 668.0C10.4 666.5 11.6 665.2 12.2 664.0C12.8 662.8 13.1 661.8 13.2 661.0C13.4 660.2 14.1 660.1 13.2 659.0C12.3 657.9 9.3 656.0 8.0 654.3C6.7 652.7 6.0 650.1 5.6 649.0C5.3 647.9 5.3 648.5 6.1 648.0C6.8 647.5 9.2 646.8 10.3 646.0C11.5 645.2 12.8 644.5 13.2 643.0C13.6 641.5 12.3 639.3 12.8 637.0C13.3 634.7 15.6 630.8 16.2 629.0C16.9 627.2 16.2 627.3 16.8 626.0C17.4 624.7 18.8 622.5 19.8 621.0C20.7 619.5 21.6 618.0 22.7 617.0C23.8 616.0 25.3 615.8 26.3 615.0C27.4 614.2 28.4 613.3 29.0 612.3C29.6 611.3 28.8 610.9 29.8 609.0C30.8 607.1 34.1 603.2 35.2 601.0C36.4 598.8 35.6 598.2 36.8 596.0C38.0 593.8 41.0 589.8 42.5 588.0C44.1 586.2 41.9 589.2 46.0 585.5C50.1 581.7 62.3 569.6 67.0 565.5C71.7 561.4 71.8 562.8 74.3 561.0C76.8 559.2 80.0 556.1 82.0 554.8C84.0 553.4 84.1 554.7 86.3 553.0C88.5 551.3 93.2 546.3 95.0 544.8C96.8 543.3 95.2 545.4 97.0 544.2C98.8 543.0 103.7 538.8 106.0 537.8C108.3 536.8 109.8 538.3 111.0 538.2C112.2 538.1 111.0 538.6 113.0 537.2C115.0 535.8 120.5 531.3 123.0 529.8C125.5 528.4 126.2 528.8 128.0 528.5C129.8 528.3 132.2 529.0 134.0 528.2C135.8 527.4 137.7 524.6 139.0 523.8C140.3 523.0 139.2 524.6 142.0 523.2C144.8 521.9 152.8 517.1 156.0 515.8C159.2 514.5 159.3 515.4 161.0 515.5C162.7 515.6 164.3 516.5 166.0 516.2C167.7 515.9 169.7 514.3 171.0 513.8C172.3 513.3 173.2 513.5 174.0 513.2C174.8 512.9 174.8 512.1 176.0 511.8C177.2 511.5 179.2 511.9 181.0 511.2C182.8 510.6 185.0 508.6 187.0 507.8C189.0 506.9 191.5 506.7 193.0 506.2C194.5 505.7 194.7 505.1 196.0 504.8C197.3 504.4 199.3 504.7 201.0 504.2C202.7 503.7 204.5 502.3 206.0 501.8C207.5 501.3 207.8 502.2 210.0 501.2C212.2 500.2 216.5 496.6 219.0 495.8C221.5 495.0 223.2 496.9 225.0 496.4C226.8 496.0 228.7 493.5 230.0 492.8C231.3 492.2 232.0 492.5 233.0 492.5C234.0 492.6 234.5 493.6 236.0 493.1C237.5 492.7 240.5 490.4 242.0 489.8C243.5 489.1 243.8 489.9 245.0 489.2C246.2 488.5 247.5 486.5 249.0 485.8C250.5 485.1 252.4 485.8 254.0 485.2C255.6 484.6 256.7 482.9 258.5 482.0C260.4 481.1 263.1 480.2 265.0 479.8C266.9 479.4 268.5 479.5 270.0 479.5C271.5 479.6 272.7 480.6 274.0 480.2C275.3 479.7 276.8 477.5 278.0 476.8C279.2 476.1 280.3 476.0 281.0 475.8C281.7 475.7 281.3 475.5 282.0 475.9C282.7 476.3 284.3 477.7 285.0 478.1C285.7 478.5 285.1 479.0 286.0 478.1C286.9 477.3 289.5 474.1 290.7 473.0C291.9 471.9 291.3 472.1 293.0 471.8C294.7 471.5 299.0 471.5 301.0 471.2C303.0 471.0 303.3 471.0 305.0 470.2C306.7 469.5 309.2 467.5 311.0 466.8C312.8 466.1 314.5 466.1 316.0 466.1C317.5 466.2 319.0 466.4 319.9 467.0C320.9 467.6 320.7 469.0 321.5 470.0C322.4 471.0 324.0 472.6 325.0 472.8C326.0 472.9 326.5 472.1 327.5 471.0C328.4 469.9 329.1 467.7 330.7 466.0C332.3 464.3 335.3 461.8 337.0 460.8C338.7 459.8 339.7 460.7 341.0 460.2C342.3 459.7 343.0 458.4 345.0 457.8C347.0 457.1 350.3 457.1 353.0 456.2C355.7 455.4 358.8 453.4 361.0 452.8C363.2 452.1 363.8 452.7 366.0 452.2C368.2 451.7 371.5 450.1 374.0 449.8C376.5 449.5 378.2 450.7 381.0 450.5C383.8 450.2 388.0 448.6 391.0 448.5C394.0 448.4 396.8 449.3 399.0 449.8C401.2 450.3 401.5 451.2 404.0 451.5C406.5 451.7 411.8 451.3 414.0 451.5C416.2 451.8 416.0 452.2 417.0 452.8C418.0 453.4 419.2 454.8 420.0 455.2C420.8 455.6 421.1 455.9 422.0 455.2C422.9 454.5 424.4 452.2 425.7 451.0C426.9 449.8 428.4 449.2 429.5 448.0C430.5 446.8 430.3 445.3 432.0 443.5C433.7 441.7 437.4 439.3 439.5 437.0C441.6 434.7 442.4 432.1 444.5 430.0C446.6 427.9 450.6 425.6 452.0 424.5C453.4 423.3 453.0 423.6 453.1 423.0C453.2 422.4 453.2 422.0 452.5 421.0C451.7 420.0 449.6 418.3 448.5 417.0C447.5 415.7 447.0 414.1 446.2 413.0C445.5 411.9 444.5 411.1 444.0 410.5C443.5 410.0 443.8 410.0 443.0 409.8C442.2 409.6 440.0 409.5 439.0 409.2C438.0 408.9 437.4 408.4 437.1 408.0C436.7 407.6 436.8 407.4 436.9 407.0C437.1 406.6 437.2 406.0 438.0 405.8C438.8 405.7 440.8 406.5 442.0 406.1C443.2 405.8 443.8 404.4 445.0 403.8C446.2 403.3 447.5 402.6 449.0 402.8C450.5 403.1 452.7 404.7 454.0 405.2C455.3 405.7 455.7 405.0 457.0 405.8C458.3 406.6 460.5 409.1 461.7 410.0C462.8 410.9 462.1 410.4 464.0 411.2C465.9 412.1 471.0 414.5 473.0 415.2C475.0 416.0 475.0 415.4 476.0 415.8C477.0 416.1 478.2 417.0 479.0 417.2C479.8 417.5 479.7 417.8 481.0 417.2C482.3 416.6 485.3 414.6 487.0 413.7C488.7 412.9 490.3 412.6 491.3 412.0C492.3 411.4 492.5 411.0 493.0 410.3C493.5 409.6 493.0 408.8 494.0 408.0C495.0 407.2 498.0 406.1 499.0 405.4C500.0 404.8 499.8 404.6 499.8 404.0C499.8 403.4 499.0 402.5 498.9 402.0C498.8 401.5 497.2 402.1 499.2 401.0C501.2 399.9 508.4 396.8 511.0 395.2C513.6 393.7 513.3 392.9 515.0 391.8C516.7 390.6 519.0 390.5 521.0 388.5C523.0 386.5 525.3 381.6 527.0 379.7C528.7 377.7 530.0 377.3 531.0 376.8C532.0 376.4 532.3 376.5 532.9 377.0C533.5 377.5 534.1 379.4 534.6 380.0C535.1 380.6 535.2 381.1 536.0 380.8C536.8 380.4 538.1 379.5 539.5 378.0C540.8 376.5 542.7 372.9 544.0 371.5C545.3 370.2 545.7 369.9 547.0 369.8C548.3 369.8 550.0 371.7 552.0 371.4C554.0 371.1 557.5 368.4 559.0 367.8C560.5 367.2 560.0 367.1 561.0 367.6C562.0 368.0 564.0 369.9 565.0 370.4C566.0 370.9 566.2 370.9 567.0 370.7C567.8 370.5 569.0 369.9 570.0 369.2C571.0 368.6 571.7 367.5 573.0 366.8C574.3 366.1 575.5 366.4 578.0 365.2C580.5 364.0 586.0 360.3 588.0 359.6C590.0 358.9 589.6 360.4 590.0 360.8C590.4 361.2 590.5 361.3 590.1 362.0C589.8 362.7 590.0 363.5 588.0 365.3C586.0 367.1 580.8 371.3 578.3 373.0C575.8 374.7 574.2 374.7 573.0 375.5C571.8 376.4 571.2 377.1 570.9 378.0C570.5 378.9 571.8 379.9 571.0 381.2C570.2 382.5 567.4 383.9 566.0 385.7C564.6 387.5 563.3 390.7 562.5 392.0C561.6 393.3 561.7 392.9 561.0 393.2C560.3 393.5 558.9 393.3 558.0 393.8C557.1 394.3 556.1 395.0 555.6 396.0C555.1 397.0 554.5 398.8 554.9 400.0C555.2 401.2 556.7 402.3 557.7 403.0C558.7 403.7 560.2 403.7 560.7 404.0C561.2 404.3 561.0 404.7 560.8 405.0C560.6 405.3 560.4 405.7 559.4 406.0C558.5 406.3 556.1 406.4 555.0 406.8C553.9 407.2 553.7 407.9 553.0 408.2C552.3 408.5 552.3 408.8 551.0 408.5C549.7 408.2 547.5 406.7 545.0 406.5C542.5 406.4 538.7 407.6 536.0 407.5C533.3 407.3 531.2 405.9 529.0 405.5C526.8 405.2 524.7 404.7 523.0 405.2C521.3 405.6 520.2 407.9 519.0 408.4C517.8 409.0 517.2 408.7 516.0 408.5C514.8 408.2 513.5 406.7 512.0 406.9C510.5 407.0 508.2 408.8 507.0 409.2C505.8 409.6 505.7 409.4 505.0 409.2C504.3 409.0 503.7 408.1 503.0 408.2C502.3 408.3 501.6 408.4 501.0 409.7C500.4 411.0 499.5 413.6 499.5 416.0C499.5 418.4 498.7 420.5 500.8 424.0C502.9 427.5 510.0 434.2 512.2 437.0C514.5 439.8 513.5 438.5 514.2 441.0C515.0 443.5 516.0 449.8 516.8 452.0C517.6 454.2 518.3 453.9 519.0 454.5C519.7 455.0 520.3 455.3 521.0 455.4C521.7 455.6 521.7 455.9 523.0 455.2C524.3 454.5 527.8 452.3 529.0 451.5C530.2 450.6 529.9 450.7 530.2 450.0C530.5 449.3 530.7 447.7 531.0 447.2C531.3 446.7 531.2 446.6 532.0 446.9C532.8 447.3 534.8 448.8 536.0 449.2C537.2 449.6 537.3 450.1 539.0 449.4C540.7 448.8 543.8 446.1 546.0 445.5C548.2 445.0 550.5 446.3 552.0 446.2C553.5 446.0 554.0 445.0 555.0 444.8C556.0 444.5 556.0 444.0 558.0 444.5C560.0 445.1 564.8 447.5 567.0 448.2C569.2 449.0 569.9 449.2 571.0 449.2C572.1 449.1 572.3 448.7 573.3 448.0C574.3 447.3 576.1 445.4 577.0 444.8C577.9 444.2 578.2 444.4 579.0 444.6C579.8 444.7 580.8 445.0 582.0 445.8C583.2 446.5 584.7 448.5 586.0 449.2C587.3 449.9 588.8 449.1 590.0 449.8C591.2 450.5 592.2 452.7 593.0 453.5C593.8 454.3 593.0 455.1 595.0 454.8C597.0 454.5 602.8 451.9 605.0 451.6C607.2 451.3 607.2 452.0 608.3 453.0C609.5 454.0 610.4 456.1 612.0 457.5C613.6 458.8 616.3 460.4 618.0 461.2C619.7 462.0 620.7 462.2 622.0 462.2C623.3 462.1 625.0 461.0 626.0 460.8C627.0 460.6 627.3 460.4 628.0 460.8C628.7 461.2 629.5 461.9 630.2 463.0C630.9 464.1 631.4 466.3 632.0 467.3C632.6 468.4 633.3 468.9 634.0 469.1C634.7 469.3 634.9 469.5 636.0 468.5C637.1 467.4 639.4 464.0 640.7 463.0C642.0 462.0 642.0 461.9 644.0 462.6C646.0 463.2 650.8 466.6 653.0 467.1C655.2 467.7 656.0 466.0 657.0 465.8C658.0 465.6 657.8 465.2 659.0 465.8C660.2 466.4 661.7 468.0 664.0 469.2C666.3 470.5 671.0 472.8 673.0 473.4C675.0 474.1 674.8 473.5 676.0 473.2C677.2 472.9 678.7 471.8 680.0 471.5C681.3 471.3 683.0 471.4 684.0 471.6C685.0 471.7 685.0 471.6 686.0 472.5C687.0 473.5 688.5 476.2 690.0 477.2C691.5 478.3 693.3 478.1 695.0 478.8C696.7 479.6 698.7 480.8 700.0 481.8C701.3 482.7 701.3 483.9 703.0 484.4C704.7 484.9 708.6 484.6 710.0 484.8C711.4 485.1 710.9 485.4 711.2 486.0C711.5 486.6 711.5 487.6 712.0 488.3C712.5 489.0 713.3 489.9 714.0 490.1C714.7 490.3 715.2 490.2 716.0 489.5C716.8 488.7 717.8 486.5 719.0 485.8C720.2 485.2 721.8 485.4 723.0 485.5C724.2 485.7 725.0 486.4 726.0 486.4C727.0 486.5 727.8 485.9 729.0 486.1C730.2 486.4 731.7 486.7 733.3 488.0C735.0 489.3 737.1 493.5 739.0 494.1C740.9 494.8 743.7 492.2 745.0 491.8C746.3 491.4 746.3 491.6 747.0 491.8C747.7 492.0 748.6 492.3 749.3 493.0C750.1 493.7 750.9 495.4 751.6 496.0C752.2 496.6 752.1 496.9 753.0 496.8C753.9 496.8 756.0 495.8 757.0 495.5C758.0 495.3 757.7 495.0 759.0 495.6C760.3 496.1 763.3 497.7 765.0 498.8C766.7 499.9 767.3 501.7 769.0 502.2C770.7 502.7 771.2 500.5 775.0 501.8C778.8 503.0 788.3 507.9 792.0 509.8C795.7 511.7 795.5 512.6 797.0 513.2C798.5 513.9 797.3 512.1 801.0 513.8C804.7 515.4 815.3 521.5 819.0 523.2C822.7 524.9 821.0 522.9 823.0 523.8C825.0 524.6 828.7 527.2 831.0 528.2C833.3 529.2 835.2 528.9 837.0 529.8C838.8 530.6 840.2 532.4 842.0 533.2C843.8 534.0 845.5 533.6 848.0 534.8C850.5 536.0 854.8 539.0 857.0 540.2C859.2 541.4 859.3 540.3 861.3 542.0C863.3 543.7 866.7 548.4 869.0 550.5C871.3 552.6 873.2 553.1 875.0 554.5C876.8 555.9 877.5 557.4 879.7 559.0C881.8 560.6 885.8 562.2 888.0 563.9C890.2 565.7 891.7 568.2 893.0 569.5C894.3 570.7 892.9 568.8 896.0 571.5C899.1 574.3 908.6 583.1 911.5 586.0C914.4 588.9 912.3 587.6 913.5 589.0C914.8 590.4 917.3 592.2 919.0 594.7C920.7 597.2 922.2 601.6 923.8 604.0C925.3 606.4 927.4 607.6 928.5 609.0C929.5 610.4 929.2 611.1 930.0 612.3C930.8 613.5 932.0 613.9 933.2 616.0C934.4 618.1 936.4 622.8 937.2 625.0C938.1 627.2 938.3 627.7 938.4 629.0C938.5 630.3 937.5 631.5 937.8 633.0C938.1 634.5 939.7 636.5 940.2 638.0C940.8 639.5 941.7 640.8 941.1 642.0C940.5 643.2 937.6 644.2 936.7 645.0C935.7 645.8 935.0 646.1 935.2 647.0C935.4 647.9 936.7 649.5 938.0 650.5C939.3 651.5 942.2 652.2 943.0 653.0C943.8 653.8 943.4 654.3 943.0 655.0C942.6 655.7 941.1 656.3 940.5 657.0C940.0 657.7 939.4 658.0 939.9 659.0C940.3 660.0 942.6 662.0 943.2 663.0C943.8 664.0 944.1 663.0 943.4 665.0C942.8 667.0 940.6 672.8 939.2 675.0C937.8 677.2 936.9 677.4 935.0 678.2C933.1 678.9 932.5 679.2 928.0 679.5C923.5 679.7 913.0 678.9 908.0 679.8C903.0 680.7 900.3 683.4 898.0 684.8C895.7 686.2 895.3 687.5 894.0 688.2C892.7 688.9 891.7 688.1 890.0 688.8C888.3 689.4 885.8 691.4 884.0 692.2C882.2 693.0 881.0 693.2 879.0 693.5C877.0 693.7 874.2 693.2 872.0 693.5C869.8 693.9 867.8 695.1 866.0 695.5C864.2 695.8 862.8 695.8 861.0 695.5C859.2 695.1 856.7 693.9 855.0 693.5C853.3 693.2 852.2 693.4 851.0 693.5C849.8 693.7 848.7 694.3 848.0 694.4C847.3 694.5 847.5 694.6 846.7 694.0C845.9 693.4 844.5 691.2 843.0 690.8C841.5 690.4 839.5 691.5 838.0 691.4C836.5 691.4 835.2 690.4 834.0 690.6C832.8 690.7 832.5 691.0 831.0 692.5C829.5 694.0 826.8 697.8 825.0 699.5C823.2 701.1 821.8 701.4 820.0 702.2C818.2 703.1 816.3 704.0 814.0 704.5C811.7 704.9 808.0 704.2 806.0 704.8C804.0 705.4 803.2 707.5 802.0 708.2C800.8 708.9 800.7 708.1 799.0 708.8C797.3 709.5 793.8 711.8 792.0 712.5C790.2 713.1 789.0 712.6 788.0 712.5C787.0 712.3 787.2 711.8 786.0 711.8C784.8 711.8 782.5 712.5 781.0 712.5C779.5 712.4 778.8 710.9 777.0 711.8C775.2 712.7 772.1 716.7 770.3 718.0C768.5 719.3 767.4 719.2 766.0 719.5C764.6 719.7 763.2 719.7 762.0 719.5C760.8 719.2 760.5 719.3 759.0 718.2C757.5 717.1 754.8 713.5 753.0 712.9C751.2 712.2 749.3 714.3 748.0 714.4C746.7 714.5 746.0 713.6 745.0 713.5C744.0 713.4 742.9 713.4 742.0 713.8C741.1 714.2 740.3 715.0 739.8 716.0C739.3 717.0 739.7 719.1 739.2 720.0C738.7 720.9 737.7 721.2 737.0 721.4C736.3 721.6 736.0 721.8 735.0 721.2C734.0 720.5 732.0 718.3 731.0 717.5C730.0 716.8 731.2 716.7 729.0 716.6C726.8 716.4 720.5 716.6 718.0 716.5C715.5 716.3 715.2 715.6 714.0 715.5C712.8 715.4 711.9 715.4 711.0 715.8C710.1 716.2 709.1 717.3 708.5 718.0C708.0 718.7 707.1 718.8 707.9 720.0C708.7 721.2 712.3 723.5 713.2 725.0C714.1 726.5 713.5 728.1 713.2 729.0C712.8 729.9 712.0 730.6 711.0 730.4C710.0 730.2 707.8 728.3 707.0 727.9C706.2 727.5 706.6 727.4 706.0 727.9C705.4 728.4 703.5 730.1 703.2 731.0C702.8 731.9 703.4 732.5 704.0 733.3C704.6 734.2 706.4 735.2 707.1 736.0C707.8 736.8 707.7 736.5 708.2 738.0C708.8 739.5 710.1 743.3 710.5 745.0C710.8 746.7 710.4 747.0 710.2 748.0C710.0 749.0 709.6 750.3 709.2 751.0C708.8 751.7 708.5 752.0 708.0 752.5C707.5 753.0 707.3 753.4 706.0 754.2C704.7 755.1 701.4 756.4 700.0 757.5C698.6 758.7 698.3 759.9 697.7 761.0C697.2 762.1 696.8 762.5 696.5 764.0C696.3 765.5 696.6 768.5 696.5 770.0C696.3 771.5 695.6 771.5 695.5 773.0C695.5 774.5 696.4 777.5 696.2 779.0C696.0 780.5 695.0 781.3 694.3 782.0C693.5 782.7 692.4 782.5 691.7 783.0C691.0 783.5 690.2 783.8 689.8 785.0C689.4 786.2 689.9 788.9 689.4 790.0C688.9 791.1 688.6 791.2 687.0 791.5C685.4 791.7 681.8 791.2 680.0 791.6C678.2 791.9 677.5 793.6 676.0 793.4C674.5 793.2 672.3 791.0 671.0 790.6C669.7 790.1 669.2 790.3 668.0 790.5C666.8 790.8 665.2 792.3 664.0 792.1C662.8 792.0 662.0 790.2 661.0 789.8C660.0 789.3 658.8 789.2 658.0 789.3C657.2 789.5 656.7 789.9 656.0 790.5C655.3 791.1 655.0 792.3 654.0 793.0C653.0 793.7 651.0 794.1 650.0 794.8C649.0 795.4 648.4 796.3 648.0 796.8C647.6 797.3 647.6 797.1 647.8 798.0C648.1 798.9 649.7 800.5 649.4 802.0C649.1 803.5 648.4 806.3 646.0 807.2C643.6 808.1 637.7 807.2 635.0 807.5C632.3 807.9 632.0 809.2 630.0 809.5C628.0 809.7 624.5 808.6 623.0 808.8C621.5 809.0 621.6 809.8 621.0 810.7C620.4 811.6 620.8 812.7 619.3 814.0C617.8 815.3 615.1 817.5 612.0 818.2C608.9 819.0 603.8 818.6 601.0 818.5C598.2 818.3 597.2 818.3 595.0 817.2C592.8 816.1 589.8 812.9 588.0 811.8C586.2 810.7 585.5 810.8 584.0 810.5C582.5 810.3 580.7 811.0 579.0 810.2C577.3 809.4 575.7 806.8 574.0 805.8C572.3 804.8 570.8 805.0 569.0 804.2C567.2 803.4 564.8 801.4 563.0 800.8C561.2 800.2 559.5 800.4 558.0 800.5C556.5 800.7 555.2 801.5 554.0 801.4C552.8 801.4 552.2 800.9 551.0 800.2C549.8 799.6 548.7 797.7 547.0 797.6C545.3 797.4 543.0 799.3 541.0 799.4C539.0 799.6 537.7 799.3 535.0 798.2C532.3 797.1 527.2 793.8 525.0 792.8C522.8 791.8 523.7 793.1 522.0 792.2C520.3 791.3 517.3 789.8 515.0 787.5C512.7 785.1 510.1 780.1 508.5 778.0C506.8 775.9 507.5 777.8 504.9 775.0C502.4 772.2 495.3 764.3 493.0 761.3C490.7 758.3 492.3 758.7 491.2 757.0C490.1 755.3 488.8 753.6 486.5 751.0C484.1 748.4 478.9 743.2 477.0 741.5C475.1 739.8 476.2 740.4 475.0 740.9C473.8 741.3 471.3 743.6 470.0 744.2C468.7 744.9 467.9 744.3 467.0 744.8C466.1 745.3 465.1 746.3 464.9 747.0C464.6 747.7 465.0 748.3 465.5 749.0C466.1 749.7 467.7 750.3 468.3 751.0C469.0 751.7 469.6 751.2 469.4 753.0C469.3 754.8 467.9 759.7 467.5 762.0C467.2 764.3 467.9 765.3 467.5 767.0C467.0 768.7 466.4 770.5 465.0 772.3C463.6 774.2 461.2 776.7 459.0 778.2C456.8 779.8 454.0 780.6 452.0 781.8C450.0 782.9 450.0 784.4 447.0 785.2C444.0 786.0 437.0 785.6 434.0 786.8C431.0 788.1 431.2 791.0 429.0 792.7C426.8 794.4 423.3 796.1 421.0 797.2C418.7 798.4 417.2 798.6 415.0 799.8C412.8 800.9 409.8 803.4 408.0 804.2C406.2 805.0 405.2 804.3 404.0 804.8C402.8 805.3 402.2 806.5 401.0 807.2C399.8 807.9 398.4 808.0 396.7 809.0C395.0 810.0 392.3 812.5 391.0 813.2C389.7 813.9 390.0 813.6 389.0 813.2C388.0 812.7 386.7 810.8 385.0 810.6C383.3 810.3 380.5 811.6 379.0 811.4C377.5 811.3 377.0 810.1 376.0 809.8C375.0 809.5 374.2 809.2 373.0 809.8C371.8 810.3 369.8 811.5 368.5 813.0C367.2 814.5 367.4 817.3 365.3 819.0C363.2 820.7 359.1 822.5 356.0 823.2Z" transform="translate(476 135) scale(1.012) translate(-476 -135)" fill="#1a0004" fill-opacity="0.7" filter="url(#contact)"/>
</svg>
